<svg width="52" height="36" viewBox="0 0 52 36" fill="none" xmlns="http://www.w3.org/2000/svg">
<path d="M18.5314 30.9271C18.5314 30.4362 18.2017 30.1089 17.7071 30.1089H3.36341C2.8688 30.1089 2.53906 30.4362 2.53906 30.9271C2.53906 31.418 2.8688 31.7453 3.36341 31.7453H17.7071C18.2017 31.7453 18.5314 31.3362 18.5314 30.9271Z" fill="white"/>
<path d="M6.66079 34.2002H5.01209C4.51748 34.2002 4.18774 34.5275 4.18774 35.0184C4.18774 35.5093 4.51748 35.8366 5.01209 35.8366H6.66079C7.1554 35.8366 7.48514 35.5093 7.48514 35.0184C7.48514 34.5275 7.1554 34.2002 6.66079 34.2002Z" fill="white"/>
<path d="M10.5353 26.8362C10.5353 26.3453 10.2055 26.0181 9.71092 26.0181H1.71473C1.22012 26.0181 0.890381 26.3453 0.890381 26.8362C0.890381 27.3272 1.22012 27.6544 1.71473 27.6544H9.71092C10.2055 27.6544 10.5353 27.2453 10.5353 26.8362Z" fill="white"/>
<path d="M51.5054 28.2272C51.2581 27.7363 50.7635 27.3272 50.2689 27.0818L44.0038 24.709L41.4483 23.809C40.7064 23.4818 40.047 22.9909 39.6348 22.3363L37.4915 18.8181C37.9036 18.7363 38.151 18.409 38.151 18C38.151 17.509 37.8212 17.1818 37.3266 17.1818H36.5023L35.513 15.5454C35.9252 15.4636 36.1725 15.1363 36.1725 14.7272C36.1725 14.2363 35.8428 13.909 35.3482 13.909H34.5238L33.6995 12.6C34.0292 12.5181 34.2765 12.1909 34.2765 11.8636C34.2765 11.3727 33.9468 11.0454 33.4522 11.0454H32.7102L31.6386 9.32722C31.6386 9.32722 31.6386 9.24541 31.5562 9.24541C30.5669 8.09995 29.248 7.52722 27.8466 7.69086C26.6101 7.8545 25.6208 8.59086 25.2087 9.49086C25.1262 9.73632 25.1262 9.98177 25.2911 10.2272L32.1332 21.8454C32.2156 22.009 32.3805 22.1727 32.5454 22.1727L40.9537 25.3636H41.0362L43.5092 26.2636L49.6918 28.6363C49.8567 28.7181 50.0216 28.8 50.104 29.0454C50.4338 29.7 50.4338 30.3545 50.0216 31.009H36.5847C35.7603 31.009 34.936 30.7636 34.2765 30.2727L11.2772 13.3363C11.2772 13.3363 11.6069 13.1727 12.0191 12.6C12.4312 12.0272 12.5961 11.2909 12.5961 10.5545L11.8542 3.68177L12.8434 2.12723C13.0907 1.79995 13.5853 1.71813 13.9151 1.96359C14.1624 2.20904 15.1516 3.02723 17.5422 6.87268C18.7787 8.67268 20.7572 9.98177 22.9829 10.309C23.3951 10.3909 23.8897 10.0636 23.9721 9.6545C24.0546 9.24541 23.7248 8.7545 23.3127 8.67268C21.5815 8.34541 19.9328 7.36359 18.9436 5.89086C16.0584 1.47268 15.234 0.818134 14.9043 0.57268C13.8326 -0.163684 12.3488 0.0817705 11.5245 1.14541L6.49592 9.08177C6.16618 9.57268 6.08375 10.1454 6.16618 10.7181C5.67157 10.8818 5.17696 11.1272 4.92966 11.6181L3.6107 13.6636C2.86878 14.7272 3.19852 16.2 4.27018 16.9363C5.01209 17.509 6.57836 18.4909 8.88654 19.9636C9.05141 20.0454 9.21628 20.1272 9.29871 20.1272C9.54602 20.1272 9.79332 19.9636 9.95819 19.7181C10.2055 19.309 10.1231 18.8181 9.71089 18.5727C7.48514 17.1 5.91888 16.1181 5.17696 15.5454C4.84722 15.3 4.76479 14.8909 5.01209 14.4818L6.24862 12.6C6.49592 12.2727 6.99053 12.1909 7.32027 12.4363L33.2049 31.5818C34.1941 32.3181 35.3482 32.6454 36.5023 32.6454H47.8783C46.1471 33.4636 43.7565 34.2 41.6957 34.2H38.8104H36.4198C35.0184 34.2 33.617 33.7909 32.4629 33.0545C27.6817 30.0272 18.7787 24.3818 12.2664 20.209C11.8542 19.9636 11.3596 20.0454 11.1123 20.4545C10.865 20.8636 10.9474 21.3545 11.3596 21.6C17.7071 25.6909 26.3627 31.1727 31.2264 34.2818H9.95819C9.46358 34.2818 9.13384 34.609 9.13384 35.1C9.13384 35.5909 9.46358 35.9181 9.95819 35.9181H36.4198H38.8104H41.6132C44.9931 35.9181 49.8567 34.1181 51.0932 32.4C52.1649 30.9272 52.2473 29.5363 51.5054 28.2272ZM33.2873 20.8636L26.8574 9.98177C27.1047 9.73632 27.5168 9.49086 28.0114 9.40904C28.5061 9.32723 29.4128 9.40904 30.2372 10.309L30.7318 11.1272H29.9899C29.4953 11.1272 29.1655 11.4545 29.1655 11.9454C29.1655 12.4363 29.4953 12.7636 29.9899 12.7636H31.721L32.5454 14.0727H31.8859C31.3913 14.0727 31.0615 14.4 31.0615 14.8909C31.0615 15.3818 31.3913 15.709 31.8859 15.709H33.5346L34.5238 17.2636H33.8643C33.3697 17.2636 33.04 17.5909 33.04 18.0818C33.04 18.5727 33.3697 18.9 33.8643 18.9H35.513L37.8212 22.5L33.2873 20.8636ZM7.89732 9.98177L10.4528 5.97268L10.9474 10.7181C10.9474 11.0454 10.865 11.3727 10.7001 11.6181C10.5352 11.8636 10.2055 12.5181 9.46358 11.9454C9.46358 11.9454 9.05141 11.7 8.30949 11.1272C7.81488 10.7181 7.73245 10.309 7.89732 9.98177Z" fill="white"/>
</svg>
